<mxfile host="app.diagrams.net" modified="2023-12-31T14:07:03.264Z" agent="Mozilla/5.0 (X11; Linux x86_64) AppleWebKit/537.36 (KHTML, like Gecko) Chrome/120.0.0.0 Safari/537.36" etag="C1lmf9nSGIuGvBHzWCzO" version="22.1.16" type="device" pages="3">
  <diagram name="Page-1" id="n5KuvBWe1dSCvbjbaIPm">
    <mxGraphModel dx="1434" dy="779" grid="1" gridSize="10" guides="1" tooltips="1" connect="1" arrows="1" fold="1" page="1" pageScale="1" pageWidth="850" pageHeight="1100" math="0" shadow="0">
      <root>
        <mxCell id="0" />
        <mxCell id="1" parent="0" />
        <mxCell id="DzzYH34OeZYYYiN3VPQy-3" value="" style="edgeStyle=orthogonalEdgeStyle;rounded=0;orthogonalLoop=1;jettySize=auto;html=1;" parent="1" source="DzzYH34OeZYYYiN3VPQy-1" target="DzzYH34OeZYYYiN3VPQy-2" edge="1">
          <mxGeometry relative="1" as="geometry" />
        </mxCell>
        <mxCell id="DzzYH34OeZYYYiN3VPQy-1" value="File creation request" style="rounded=1;whiteSpace=wrap;html=1;" parent="1" vertex="1">
          <mxGeometry x="350" y="40" width="120" height="60" as="geometry" />
        </mxCell>
        <mxCell id="DzzYH34OeZYYYiN3VPQy-5" value="" style="edgeStyle=orthogonalEdgeStyle;rounded=0;orthogonalLoop=1;jettySize=auto;html=1;" parent="1" source="DzzYH34OeZYYYiN3VPQy-2" target="DzzYH34OeZYYYiN3VPQy-4" edge="1">
          <mxGeometry relative="1" as="geometry" />
        </mxCell>
        <mxCell id="DzzYH34OeZYYYiN3VPQy-2" value="Retrieve folder sym. key (share or not)" style="rounded=0;whiteSpace=wrap;html=1;" parent="1" vertex="1">
          <mxGeometry x="350" y="160" width="120" height="60" as="geometry" />
        </mxCell>
        <mxCell id="DzzYH34OeZYYYiN3VPQy-8" value="" style="edgeStyle=orthogonalEdgeStyle;rounded=0;orthogonalLoop=1;jettySize=auto;html=1;" parent="1" target="DzzYH34OeZYYYiN3VPQy-7" edge="1">
          <mxGeometry relative="1" as="geometry">
            <mxPoint x="410" y="460" as="sourcePoint" />
          </mxGeometry>
        </mxCell>
        <mxCell id="DzzYH34OeZYYYiN3VPQy-4" value="Encrypt file content and filename with folder&#39;s sym. key" style="rounded=0;whiteSpace=wrap;html=1;" parent="1" vertex="1">
          <mxGeometry x="350" y="280" width="120" height="60" as="geometry" />
        </mxCell>
        <mxCell id="DzzYH34OeZYYYiN3VPQy-7" value="Send file and metadata to server" style="rounded=1;whiteSpace=wrap;html=1;" parent="1" vertex="1">
          <mxGeometry x="350" y="520" width="120" height="60" as="geometry" />
        </mxCell>
        <mxCell id="DzzYH34OeZYYYiN3VPQy-9" value="Update folder&#39;s metadata and encrypt it back with folder&#39;s sym. key" style="rounded=0;whiteSpace=wrap;html=1;" parent="1" vertex="1">
          <mxGeometry x="350" y="400" width="120" height="60" as="geometry" />
        </mxCell>
        <mxCell id="DzzYH34OeZYYYiN3VPQy-10" value="" style="edgeStyle=orthogonalEdgeStyle;rounded=0;orthogonalLoop=1;jettySize=auto;html=1;" parent="1" edge="1">
          <mxGeometry relative="1" as="geometry">
            <mxPoint x="409.75" y="340" as="sourcePoint" />
            <mxPoint x="409.75" y="400" as="targetPoint" />
          </mxGeometry>
        </mxCell>
      </root>
    </mxGraphModel>
  </diagram>
  <diagram id="vQbJJb9MyNpAhTt13cEj" name="Page-2">
    <mxGraphModel dx="1434" dy="779" grid="1" gridSize="10" guides="1" tooltips="1" connect="1" arrows="1" fold="1" page="1" pageScale="1" pageWidth="850" pageHeight="1100" math="0" shadow="0">
      <root>
        <mxCell id="0" />
        <mxCell id="1" parent="0" />
        <mxCell id="Cr0SZ5iqvmTCtZHUpr8f-1" value="" style="rounded=0;whiteSpace=wrap;html=1;fillColor=none;" vertex="1" parent="1">
          <mxGeometry x="70" y="20" width="780" height="630" as="geometry" />
        </mxCell>
        <mxCell id="Cr0SZ5iqvmTCtZHUpr8f-2" value="Client" style="shape=umlLifeline;perimeter=lifelinePerimeter;whiteSpace=wrap;html=1;container=1;dropTarget=0;collapsible=0;recursiveResize=0;outlineConnect=0;portConstraint=eastwest;newEdgeStyle={&quot;edgeStyle&quot;:&quot;elbowEdgeStyle&quot;,&quot;elbow&quot;:&quot;vertical&quot;,&quot;curved&quot;:0,&quot;rounded&quot;:0};" vertex="1" parent="1">
          <mxGeometry x="200" y="90" width="100" height="500" as="geometry" />
        </mxCell>
        <mxCell id="Cr0SZ5iqvmTCtZHUpr8f-3" value="Server" style="shape=umlLifeline;perimeter=lifelinePerimeter;whiteSpace=wrap;html=1;container=1;dropTarget=0;collapsible=0;recursiveResize=0;outlineConnect=0;portConstraint=eastwest;newEdgeStyle={&quot;edgeStyle&quot;:&quot;elbowEdgeStyle&quot;,&quot;elbow&quot;:&quot;vertical&quot;,&quot;curved&quot;:0,&quot;rounded&quot;:0};" vertex="1" parent="1">
          <mxGeometry x="600" y="90" width="100" height="490" as="geometry" />
        </mxCell>
        <mxCell id="Cr0SZ5iqvmTCtZHUpr8f-4" value="" style="html=1;points=[[0,0,0,0,5],[0,1,0,0,-5],[1,0,0,0,5],[1,1,0,0,-5]];perimeter=orthogonalPerimeter;outlineConnect=0;targetShapes=umlLifeline;portConstraint=eastwest;newEdgeStyle={&quot;curved&quot;:0,&quot;rounded&quot;:0};" vertex="1" parent="Cr0SZ5iqvmTCtZHUpr8f-3">
          <mxGeometry x="45" y="350" width="10" height="120" as="geometry" />
        </mxCell>
        <mxCell id="Cr0SZ5iqvmTCtZHUpr8f-5" value="Initiates change" style="html=1;verticalAlign=bottom;startArrow=oval;startFill=1;endArrow=block;startSize=8;curved=0;rounded=0;" edge="1" parent="1">
          <mxGeometry y="61" width="60" relative="1" as="geometry">
            <mxPoint x="246.0999999999999" y="170" as="sourcePoint" />
            <mxPoint x="246.0999999999999" y="170" as="targetPoint" />
            <mxPoint x="-60" y="-10" as="offset" />
          </mxGeometry>
        </mxCell>
        <mxCell id="Cr0SZ5iqvmTCtZHUpr8f-6" value="" style="html=1;verticalAlign=bottom;startArrow=oval;startFill=1;endArrow=block;startSize=8;curved=0;rounded=0;" edge="1" parent="1" target="Cr0SZ5iqvmTCtZHUpr8f-8">
          <mxGeometry width="60" relative="1" as="geometry">
            <mxPoint x="130" y="160" as="sourcePoint" />
            <mxPoint x="249" y="160" as="targetPoint" />
          </mxGeometry>
        </mxCell>
        <mxCell id="Cr0SZ5iqvmTCtZHUpr8f-7" value="File name to&amp;nbsp;&lt;br&gt;upload" style="edgeLabel;html=1;align=center;verticalAlign=middle;resizable=0;points=[];" vertex="1" connectable="0" parent="Cr0SZ5iqvmTCtZHUpr8f-6">
          <mxGeometry x="-0.287" y="1" relative="1" as="geometry">
            <mxPoint x="11" y="15" as="offset" />
          </mxGeometry>
        </mxCell>
        <mxCell id="Cr0SZ5iqvmTCtZHUpr8f-8" value="" style="html=1;points=[[0,0,0,0,5],[0,1,0,0,-5],[1,0,0,0,5],[1,1,0,0,-5]];perimeter=orthogonalPerimeter;outlineConnect=0;targetShapes=umlLifeline;portConstraint=eastwest;newEdgeStyle={&quot;curved&quot;:0,&quot;rounded&quot;:0};" vertex="1" parent="1">
          <mxGeometry x="245" y="150" width="10" height="430" as="geometry" />
        </mxCell>
        <mxCell id="Cr0SZ5iqvmTCtZHUpr8f-9" value="User" style="shape=umlActor;verticalLabelPosition=bottom;verticalAlign=top;html=1;" vertex="1" parent="1">
          <mxGeometry x="84" y="130" width="30" height="60" as="geometry" />
        </mxCell>
        <mxCell id="Cr0SZ5iqvmTCtZHUpr8f-10" value="" style="endArrow=classic;html=1;rounded=0;" edge="1" parent="1">
          <mxGeometry width="50" height="50" relative="1" as="geometry">
            <mxPoint x="255" y="376" as="sourcePoint" />
            <mxPoint x="255" y="422" as="targetPoint" />
            <Array as="points">
              <mxPoint x="280" y="376" />
              <mxPoint x="280" y="392" />
              <mxPoint x="280" y="422" />
            </Array>
          </mxGeometry>
        </mxCell>
        <mxCell id="Cr0SZ5iqvmTCtZHUpr8f-11" value="Update current folder&#39;s&lt;br&gt;metadata" style="edgeLabel;html=1;align=center;verticalAlign=middle;resizable=0;points=[];" vertex="1" connectable="0" parent="Cr0SZ5iqvmTCtZHUpr8f-10">
          <mxGeometry x="-0.0183" y="1" relative="1" as="geometry">
            <mxPoint x="56" y="4" as="offset" />
          </mxGeometry>
        </mxCell>
        <mxCell id="Cr0SZ5iqvmTCtZHUpr8f-12" value="&lt;font style=&quot;font-size: 20px;&quot;&gt;&lt;b&gt;File upload&lt;/b&gt;&lt;/font&gt;" style="text;html=1;strokeColor=none;fillColor=none;align=center;verticalAlign=middle;whiteSpace=wrap;rounded=0;" vertex="1" parent="1">
          <mxGeometry x="35" y="22" width="190" height="30" as="geometry" />
        </mxCell>
        <mxCell id="Cr0SZ5iqvmTCtZHUpr8f-13" value="" style="endArrow=classic;html=1;rounded=0;" edge="1" parent="1">
          <mxGeometry width="50" height="50" relative="1" as="geometry">
            <mxPoint x="255" y="233" as="sourcePoint" />
            <mxPoint x="255" y="279" as="targetPoint" />
            <Array as="points">
              <mxPoint x="280" y="233" />
              <mxPoint x="280" y="249" />
              <mxPoint x="280" y="279" />
            </Array>
          </mxGeometry>
        </mxCell>
        <mxCell id="Cr0SZ5iqvmTCtZHUpr8f-14" value="Retrieve current folder&#39;s&lt;br&gt;symmetric key" style="edgeLabel;html=1;align=center;verticalAlign=middle;resizable=0;points=[];" vertex="1" connectable="0" parent="Cr0SZ5iqvmTCtZHUpr8f-13">
          <mxGeometry x="-0.0183" y="1" relative="1" as="geometry">
            <mxPoint x="59" y="-1" as="offset" />
          </mxGeometry>
        </mxCell>
        <mxCell id="Cr0SZ5iqvmTCtZHUpr8f-15" value="" style="endArrow=classic;html=1;rounded=0;" edge="1" parent="1">
          <mxGeometry width="50" height="50" relative="1" as="geometry">
            <mxPoint x="255" y="165" as="sourcePoint" />
            <mxPoint x="255" y="211" as="targetPoint" />
            <Array as="points">
              <mxPoint x="280" y="165" />
              <mxPoint x="280" y="181" />
              <mxPoint x="280" y="211" />
            </Array>
          </mxGeometry>
        </mxCell>
        <mxCell id="Cr0SZ5iqvmTCtZHUpr8f-16" value="Read file content&amp;nbsp;&lt;br&gt;and name" style="edgeLabel;html=1;align=center;verticalAlign=middle;resizable=0;points=[];" vertex="1" connectable="0" parent="Cr0SZ5iqvmTCtZHUpr8f-15">
          <mxGeometry x="-0.0183" y="1" relative="1" as="geometry">
            <mxPoint x="49" y="-1" as="offset" />
          </mxGeometry>
        </mxCell>
        <mxCell id="Cr0SZ5iqvmTCtZHUpr8f-17" value="" style="endArrow=classic;html=1;rounded=0;" edge="1" parent="1">
          <mxGeometry width="50" height="50" relative="1" as="geometry">
            <mxPoint x="255" y="297" as="sourcePoint" />
            <mxPoint x="255" y="343" as="targetPoint" />
            <Array as="points">
              <mxPoint x="280" y="297" />
              <mxPoint x="280" y="313" />
              <mxPoint x="280" y="343" />
            </Array>
          </mxGeometry>
        </mxCell>
        <mxCell id="Cr0SZ5iqvmTCtZHUpr8f-18" value="&lt;div&gt;Encrypt file&#39;s&amp;nbsp;&lt;/div&gt;&lt;div&gt;content and name&lt;/div&gt;" style="edgeLabel;html=1;align=center;verticalAlign=middle;resizable=0;points=[];" vertex="1" connectable="0" parent="Cr0SZ5iqvmTCtZHUpr8f-17">
          <mxGeometry x="-0.0183" y="1" relative="1" as="geometry">
            <mxPoint x="62" y="-1" as="offset" />
          </mxGeometry>
        </mxCell>
        <mxCell id="Cr0SZ5iqvmTCtZHUpr8f-19" value="" style="endArrow=classic;html=1;rounded=0;" edge="1" parent="1">
          <mxGeometry width="50" height="50" relative="1" as="geometry">
            <mxPoint x="255" y="474" as="sourcePoint" />
            <mxPoint x="645" y="474" as="targetPoint" />
          </mxGeometry>
        </mxCell>
        <mxCell id="Cr0SZ5iqvmTCtZHUpr8f-20" value="Send updated current directory&#39;s metadata&lt;br&gt;Send file&#39;s content" style="edgeLabel;html=1;align=center;verticalAlign=middle;resizable=0;points=[];" vertex="1" connectable="0" parent="Cr0SZ5iqvmTCtZHUpr8f-19">
          <mxGeometry x="-0.4256" y="-1" relative="1" as="geometry">
            <mxPoint x="80" y="-19" as="offset" />
          </mxGeometry>
        </mxCell>
        <mxCell id="Cr0SZ5iqvmTCtZHUpr8f-21" value="" style="endArrow=classic;html=1;rounded=0;" edge="1" parent="1">
          <mxGeometry width="50" height="50" relative="1" as="geometry">
            <mxPoint x="655" y="482" as="sourcePoint" />
            <mxPoint x="655" y="528" as="targetPoint" />
            <Array as="points">
              <mxPoint x="680" y="482" />
              <mxPoint x="680" y="498" />
              <mxPoint x="680" y="528" />
            </Array>
          </mxGeometry>
        </mxCell>
        <mxCell id="Cr0SZ5iqvmTCtZHUpr8f-22" value="Update current directory&#39;s&lt;br&gt;metadata&lt;br&gt;and&lt;br&gt;create file" style="edgeLabel;html=1;align=center;verticalAlign=middle;resizable=0;points=[];" vertex="1" connectable="0" parent="Cr0SZ5iqvmTCtZHUpr8f-21">
          <mxGeometry x="-0.0183" y="1" relative="1" as="geometry">
            <mxPoint x="63" y="2" as="offset" />
          </mxGeometry>
        </mxCell>
        <mxCell id="Cr0SZ5iqvmTCtZHUpr8f-23" value="" style="endArrow=none;html=1;rounded=0;endFill=0;startArrow=classic;startFill=1;" edge="1" parent="1">
          <mxGeometry width="50" height="50" relative="1" as="geometry">
            <mxPoint x="255" y="550" as="sourcePoint" />
            <mxPoint x="645" y="550" as="targetPoint" />
          </mxGeometry>
        </mxCell>
        <mxCell id="Cr0SZ5iqvmTCtZHUpr8f-24" value="File creation successful" style="edgeLabel;html=1;align=center;verticalAlign=middle;resizable=0;points=[];" vertex="1" connectable="0" parent="Cr0SZ5iqvmTCtZHUpr8f-23">
          <mxGeometry x="-0.4256" y="-1" relative="1" as="geometry">
            <mxPoint x="80" y="-13" as="offset" />
          </mxGeometry>
        </mxCell>
      </root>
    </mxGraphModel>
  </diagram>
  <diagram id="wYhQ9Xs6oAbDfeKA4yOH" name="Page-3">
    <mxGraphModel dx="1434" dy="779" grid="1" gridSize="10" guides="1" tooltips="1" connect="1" arrows="1" fold="1" page="1" pageScale="1" pageWidth="850" pageHeight="1100" math="0" shadow="0">
      <root>
        <mxCell id="0" />
        <mxCell id="1" parent="0" />
        <mxCell id="0tnAcv34dep9mkvJoqx_-1" value="" style="rounded=0;whiteSpace=wrap;html=1;fillColor=none;" vertex="1" parent="1">
          <mxGeometry x="70" y="20" width="780" height="430" as="geometry" />
        </mxCell>
        <mxCell id="0tnAcv34dep9mkvJoqx_-2" value="Client" style="shape=umlLifeline;perimeter=lifelinePerimeter;whiteSpace=wrap;html=1;container=1;dropTarget=0;collapsible=0;recursiveResize=0;outlineConnect=0;portConstraint=eastwest;newEdgeStyle={&quot;edgeStyle&quot;:&quot;elbowEdgeStyle&quot;,&quot;elbow&quot;:&quot;vertical&quot;,&quot;curved&quot;:0,&quot;rounded&quot;:0};" vertex="1" parent="1">
          <mxGeometry x="200" y="90" width="100" height="350" as="geometry" />
        </mxCell>
        <mxCell id="0tnAcv34dep9mkvJoqx_-3" value="Server" style="shape=umlLifeline;perimeter=lifelinePerimeter;whiteSpace=wrap;html=1;container=1;dropTarget=0;collapsible=0;recursiveResize=0;outlineConnect=0;portConstraint=eastwest;newEdgeStyle={&quot;edgeStyle&quot;:&quot;elbowEdgeStyle&quot;,&quot;elbow&quot;:&quot;vertical&quot;,&quot;curved&quot;:0,&quot;rounded&quot;:0};" vertex="1" parent="1">
          <mxGeometry x="600" y="90" width="100" height="350" as="geometry" />
        </mxCell>
        <mxCell id="0tnAcv34dep9mkvJoqx_-4" value="" style="html=1;points=[[0,0,0,0,5],[0,1,0,0,-5],[1,0,0,0,5],[1,1,0,0,-5]];perimeter=orthogonalPerimeter;outlineConnect=0;targetShapes=umlLifeline;portConstraint=eastwest;newEdgeStyle={&quot;curved&quot;:0,&quot;rounded&quot;:0};" vertex="1" parent="0tnAcv34dep9mkvJoqx_-3">
          <mxGeometry x="45" y="140" width="10" height="100" as="geometry" />
        </mxCell>
        <mxCell id="0tnAcv34dep9mkvJoqx_-5" value="Initiates change" style="html=1;verticalAlign=bottom;startArrow=oval;startFill=1;endArrow=block;startSize=8;curved=0;rounded=0;" edge="1" parent="1">
          <mxGeometry y="61" width="60" relative="1" as="geometry">
            <mxPoint x="246.0999999999999" y="170" as="sourcePoint" />
            <mxPoint x="246.0999999999999" y="170" as="targetPoint" />
            <mxPoint x="-60" y="-10" as="offset" />
          </mxGeometry>
        </mxCell>
        <mxCell id="0tnAcv34dep9mkvJoqx_-6" value="" style="html=1;verticalAlign=bottom;startArrow=oval;startFill=1;endArrow=block;startSize=8;curved=0;rounded=0;" edge="1" parent="1" target="0tnAcv34dep9mkvJoqx_-8">
          <mxGeometry width="60" relative="1" as="geometry">
            <mxPoint x="130" y="160" as="sourcePoint" />
            <mxPoint x="249" y="160" as="targetPoint" />
          </mxGeometry>
        </mxCell>
        <mxCell id="0tnAcv34dep9mkvJoqx_-7" value="File name to&amp;nbsp;&lt;br&gt;download" style="edgeLabel;html=1;align=center;verticalAlign=middle;resizable=0;points=[];" vertex="1" connectable="0" parent="0tnAcv34dep9mkvJoqx_-6">
          <mxGeometry x="-0.287" y="1" relative="1" as="geometry">
            <mxPoint x="11" y="15" as="offset" />
          </mxGeometry>
        </mxCell>
        <mxCell id="0tnAcv34dep9mkvJoqx_-8" value="" style="html=1;points=[[0,0,0,0,5],[0,1,0,0,-5],[1,0,0,0,5],[1,1,0,0,-5]];perimeter=orthogonalPerimeter;outlineConnect=0;targetShapes=umlLifeline;portConstraint=eastwest;newEdgeStyle={&quot;curved&quot;:0,&quot;rounded&quot;:0};" vertex="1" parent="1">
          <mxGeometry x="245" y="150" width="10" height="270" as="geometry" />
        </mxCell>
        <mxCell id="0tnAcv34dep9mkvJoqx_-9" value="User" style="shape=umlActor;verticalLabelPosition=bottom;verticalAlign=top;html=1;" vertex="1" parent="1">
          <mxGeometry x="84" y="130" width="30" height="60" as="geometry" />
        </mxCell>
        <mxCell id="0tnAcv34dep9mkvJoqx_-10" value="" style="endArrow=classic;html=1;rounded=0;" edge="1" parent="1">
          <mxGeometry width="50" height="50" relative="1" as="geometry">
            <mxPoint x="255" y="350" as="sourcePoint" />
            <mxPoint x="255" y="396" as="targetPoint" />
            <Array as="points">
              <mxPoint x="280" y="350" />
              <mxPoint x="280" y="366" />
              <mxPoint x="280" y="396" />
            </Array>
          </mxGeometry>
        </mxCell>
        <mxCell id="0tnAcv34dep9mkvJoqx_-11" value="Decrypt file content&lt;br&gt;and&lt;br&gt;create file locally" style="edgeLabel;html=1;align=center;verticalAlign=middle;resizable=0;points=[];" vertex="1" connectable="0" parent="0tnAcv34dep9mkvJoqx_-10">
          <mxGeometry x="-0.0183" y="1" relative="1" as="geometry">
            <mxPoint x="56" y="4" as="offset" />
          </mxGeometry>
        </mxCell>
        <mxCell id="0tnAcv34dep9mkvJoqx_-12" value="&lt;font style=&quot;font-size: 20px;&quot;&gt;&lt;b&gt;File download&lt;/b&gt;&lt;/font&gt;" style="text;html=1;strokeColor=none;fillColor=none;align=center;verticalAlign=middle;whiteSpace=wrap;rounded=0;" vertex="1" parent="1">
          <mxGeometry x="50" y="20" width="190" height="30" as="geometry" />
        </mxCell>
        <mxCell id="0tnAcv34dep9mkvJoqx_-15" value="" style="endArrow=classic;html=1;rounded=0;" edge="1" parent="1">
          <mxGeometry width="50" height="50" relative="1" as="geometry">
            <mxPoint x="255" y="165" as="sourcePoint" />
            <mxPoint x="255" y="211" as="targetPoint" />
            <Array as="points">
              <mxPoint x="280" y="165" />
              <mxPoint x="280" y="181" />
              <mxPoint x="280" y="211" />
            </Array>
          </mxGeometry>
        </mxCell>
        <mxCell id="0tnAcv34dep9mkvJoqx_-16" value="Map clear file name&lt;br&gt;to encrypted file&lt;br&gt;name" style="edgeLabel;html=1;align=center;verticalAlign=middle;resizable=0;points=[];" vertex="1" connectable="0" parent="0tnAcv34dep9mkvJoqx_-15">
          <mxGeometry x="-0.0183" y="1" relative="1" as="geometry">
            <mxPoint x="49" y="-1" as="offset" />
          </mxGeometry>
        </mxCell>
        <mxCell id="0tnAcv34dep9mkvJoqx_-19" value="" style="endArrow=classic;html=1;rounded=0;" edge="1" parent="1">
          <mxGeometry width="50" height="50" relative="1" as="geometry">
            <mxPoint x="255" y="245" as="sourcePoint" />
            <mxPoint x="645" y="245" as="targetPoint" />
          </mxGeometry>
        </mxCell>
        <mxCell id="0tnAcv34dep9mkvJoqx_-20" value="Send request for encrypted file name" style="edgeLabel;html=1;align=center;verticalAlign=middle;resizable=0;points=[];" vertex="1" connectable="0" parent="0tnAcv34dep9mkvJoqx_-19">
          <mxGeometry x="-0.4256" y="-1" relative="1" as="geometry">
            <mxPoint x="80" y="-19" as="offset" />
          </mxGeometry>
        </mxCell>
        <mxCell id="0tnAcv34dep9mkvJoqx_-21" value="" style="endArrow=classic;html=1;rounded=0;" edge="1" parent="1">
          <mxGeometry width="50" height="50" relative="1" as="geometry">
            <mxPoint x="655" y="260" as="sourcePoint" />
            <mxPoint x="655" y="306" as="targetPoint" />
            <Array as="points">
              <mxPoint x="680" y="260" />
              <mxPoint x="680" y="276" />
              <mxPoint x="680" y="306" />
            </Array>
          </mxGeometry>
        </mxCell>
        <mxCell id="0tnAcv34dep9mkvJoqx_-22" value="Prepare file&#39;s information&lt;br&gt;to send" style="edgeLabel;html=1;align=center;verticalAlign=middle;resizable=0;points=[];" vertex="1" connectable="0" parent="0tnAcv34dep9mkvJoqx_-21">
          <mxGeometry x="-0.0183" y="1" relative="1" as="geometry">
            <mxPoint x="63" y="2" as="offset" />
          </mxGeometry>
        </mxCell>
        <mxCell id="0tnAcv34dep9mkvJoqx_-23" value="" style="endArrow=none;html=1;rounded=0;endFill=0;startArrow=classic;startFill=1;" edge="1" parent="1">
          <mxGeometry width="50" height="50" relative="1" as="geometry">
            <mxPoint x="255" y="320" as="sourcePoint" />
            <mxPoint x="645" y="320" as="targetPoint" />
          </mxGeometry>
        </mxCell>
        <mxCell id="0tnAcv34dep9mkvJoqx_-24" value="Send file&#39;s informations (name, content, etc...)" style="edgeLabel;html=1;align=center;verticalAlign=middle;resizable=0;points=[];" vertex="1" connectable="0" parent="0tnAcv34dep9mkvJoqx_-23">
          <mxGeometry x="-0.4256" y="-1" relative="1" as="geometry">
            <mxPoint x="80" y="-13" as="offset" />
          </mxGeometry>
        </mxCell>
      </root>
    </mxGraphModel>
  </diagram>
</mxfile>
